<svg viewBox="0 0 256 256" xmlns="http://www.w3.org/2000/svg">
    <g fill-rule="evenodd">
        <circle cx="128.5" cy="139.5" r="18.5"/>
        <path fill="currentColor" d="m89.3 69.8 40-23.6 38 23.4.2 44.5-18.9 12s-11-10.5-21.2-10.5-19.2 10.5-19.2 10.5l-17.8-12zm4.6 40.3 32.7-19.5-.3-38-33.6 19.9zm1.8 4.8c1.9 0 12 7 12 7s9.2-10.3 20-10 21.4 10.2 21.4 10.2l14.3-8.5L129 95.1S94 115 95.7 115m-8 95-40.5-23 1.2-44.6L88 118.9l18.9 11.3s-3.4 14.4 1.6 23.2 18.6 11.9 18.6 11.9l-.5 21.4zm32.5-24.2L87 167l-32.7 19.3 34 19.1zm3.3-4c-1-1.6 0-13.9 0-13.9S110 164.5 105 155s-2-23-2-23l-14.4-8.2 1.2 39.1s34.6 20.5 33.7 18.9m84.4-40.9.5 46.4-39.3 21.3-38.7-22-1-21.4s13.5-3 18.6-11.7c5-8.7 2.6-23.4 2.6-23.4l18.4-10.4zm-37.2-16 .5 38 33.2 18.7-.5-39zm-4 0-12 7s2 14.6-3.7 23.8a31 31 0 0 1-17.3 11.9l.2 14.6 32.2-19.6z"/>
    </g>
</svg>
